<?xml version="1.0" standalone="no"?>
<!DOCTYPE svg PUBLIC "-//W3C//DTD SVG 20010904//EN"
 "http://www.w3.org/TR/2001/REC-SVG-20010904/DTD/svg10.dtd">
<svg version="1.0" xmlns="http://www.w3.org/2000/svg"
 width="800.000000pt" height="241.000000pt" viewBox="0 0 800.000000 241.000000"
 preserveAspectRatio="xMidYMid meet">

<g transform="translate(0.000000,241.000000) scale(0.100000,-0.100000)"
fill="#000000" stroke="none">
<path d="M0 1205 l0 -1205 4000 0 4000 0 0 1205 0 1205 -4000 0 -4000 0 0
-1205z m780 1145 c0 -5 -4 -10 -10 -10 -5 0 -10 5 -10 10 0 6 5 10 10 10 6 0
10 -4 10 -10z m100 0 c0 -5 -4 -10 -10 -10 -5 0 -10 5 -10 10 0 6 5 10 10 10
6 0 10 -4 10 -10z m130 -53 l0 -64 -35 -1 c-30 -1 -36 2 -41 25 -8 32 6 57 35
61 13 2 21 11 21 23 0 10 5 19 10 19 6 0 10 -28 10 -63z m70 4 c0 -48 3 -60
18 -64 9 -3 -1 -5 -23 -5 -22 0 -34 2 -27 5 7 3 12 25 12 58 0 33 -5 55 -12
58 -7 3 -3 6 10 6 20 1 22 -3 22 -58z m308 52 c-15 -4 -18 -16 -18 -78 0 -62
3 -74 18 -78 10 -3 6 -5 -10 -6 l-28 -1 0 85 0 85 28 -1 c16 -1 20 -3 10 -6z
m392 -3 c0 -5 -4 -10 -10 -10 -5 0 -10 5 -10 10 0 6 5 10 10 10 6 0 10 -4 10
-10z m310 -75 c0 -82 -1 -85 -22 -84 -17 1 -19 2 -5 6 14 4 17 16 17 78 0 62
-3 74 -17 78 -14 4 -12 5 5 6 21 1 22 -2 22 -84z m-420 60 c0 -8 10 -16 23
-16 l22 -2 -22 -4 c-19 -4 -23 -11 -23 -38 0 -27 5 -35 23 -38 15 -4 12 -5 -8
-4 -27 2 -30 6 -33 37 -2 19 -9 38 -15 42 -9 6 -9 8 1 8 6 0 12 7 12 15 0 8 5
15 10 15 6 0 10 -7 10 -15z m-1620 -45 c0 -43 3 -50 20 -50 20 0 25 12 34 75
2 17 3 8 2 -19 -1 -56 -22 -79 -53 -60 -20 12 -32 104 -14 104 6 0 11 -22 11
-50z m144 21 c4 -5 -2 -7 -13 -4 -25 6 -38 -15 -14 -24 34 -12 44 -24 32 -39
-13 -16 -45 -19 -53 -5 -3 4 6 6 19 3 33 -6 33 16 0 28 -24 9 -32 29 -18 43 9
10 41 8 47 -2z m104 -3 c22 -22 13 -38 -19 -38 -39 0 -34 -22 7 -32 28 -6 28
-6 -5 -5 -43 2 -59 26 -43 61 12 28 40 34 60 14z m182 -3 c0 -8 -4 -15 -10
-15 -5 0 -10 7 -10 15 0 8 5 15 10 15 6 0 10 -7 10 -15z m226 -11 c8 -33 -6
-58 -34 -62 -12 -2 -23 -12 -25 -25 -2 -12 -5 7 -6 43 l-1 66 30 2 c25 2 31
-2 36 -24z m74 -13 c0 -29 5 -41 18 -44 9 -3 -1 -5 -23 -5 -22 0 -34 2 -27 5
6 2 12 20 12 38 0 18 -6 36 -12 38 -7 3 -3 6 10 6 19 1 22 -4 22 -38z m100 0
c0 -29 5 -41 18 -44 9 -3 -1 -5 -23 -5 -22 0 -34 2 -27 5 6 2 12 20 12 38 0
18 -6 36 -12 38 -7 3 -3 6 10 6 19 1 22 -4 22 -38z m318 27 c22 -22 13 -38
-19 -38 -39 0 -34 -22 7 -32 28 -6 28 -6 -5 -5 -43 2 -59 26 -43 61 12 28 40
34 60 14z m302 -2 c28 -35 -11 -93 -47 -70 -36 22 -23 84 17 84 10 0 23 -7 30
-14z m106 -12 c8 -33 -6 -58 -34 -62 -12 -2 -23 -12 -25 -25 -2 -12 -5 7 -6
43 l-1 66 30 2 c25 2 31 -2 36 -24z m174 -13 c0 -29 5 -41 18 -44 9 -3 -1 -5
-23 -5 -22 0 -34 2 -27 5 6 2 12 20 12 38 0 18 -6 36 -12 38 -7 3 -3 6 10 6
19 1 22 -4 22 -38z m120 25 c28 -35 -11 -93 -47 -70 -36 22 -23 84 17 84 10 0
23 -7 30 -14z m102 2 c11 -18 10 -78 -2 -78 -5 0 -10 18 -10 41 0 33 -3 40
-17 37 -12 -2 -20 -16 -24 -43 l-6 -40 -2 45 c-1 43 1 46 26 48 15 1 30 -4 35
-10z m-1522 -63 c0 -8 -4 -15 -10 -15 -5 0 -10 7 -10 15 0 8 5 15 10 15 6 0
10 -7 10 -15z m-200 -384 c0 -48 3 -60 18 -64 9 -3 -1 -5 -23 -5 -22 0 -34 2
-27 5 7 3 12 25 12 58 0 33 -5 55 -12 58 -7 3 -3 6 10 6 20 1 22 -3 22 -58z
m-230 14 c0 -20 5 -25 24 -25 19 0 26 6 29 28 2 15 4 0 4 -33 0 -33 -2 -48 -4
-32 -3 21 -10 27 -29 27 -19 0 -24 -5 -24 -25 0 -14 -4 -25 -10 -25 -5 0 -10
25 -10 55 0 30 5 55 10 55 6 0 10 -11 10 -25z m148 -7 c22 -22 13 -38 -19 -38
-39 0 -34 -22 7 -32 28 -6 28 -6 -5 -5 -43 2 -59 26 -43 61 12 28 40 34 60 14z
m208 -14 c8 -33 -6 -58 -34 -62 -12 -2 -23 -12 -25 -25 -2 -12 -5 7 -6 43 l-1
66 30 2 c25 2 31 -2 36 -24z m74 11 c0 -8 -4 -15 -10 -15 -5 0 -10 7 -10 15 0
8 5 15 10 15 6 0 10 -7 10 -15z m0 -60 c0 -8 -4 -15 -10 -15 -5 0 -10 7 -10
15 0 8 5 15 10 15 6 0 10 -7 10 -15z m-300 -335 c0 -5 -4 -10 -10 -10 -5 0
-10 5 -10 10 0 6 5 10 10 10 6 0 10 -4 10 -10z m500 0 c0 -5 -4 -10 -10 -10
-5 0 -10 5 -10 10 0 6 5 10 10 10 6 0 10 -4 10 -10z m130 -53 l0 -64 -35 -1
c-30 -1 -36 2 -41 25 -8 32 6 57 35 61 13 2 21 11 21 23 0 10 5 19 10 19 6 0
10 -28 10 -63z m70 4 c0 -48 3 -60 18 -64 9 -3 -1 -5 -23 -5 -22 0 -34 2 -27
5 7 3 12 25 12 58 0 33 -5 55 -12 58 -7 3 -3 6 10 6 20 1 22 -3 22 -58z m1730
-4 l0 -64 -35 -1 c-30 -1 -36 2 -41 25 -8 32 6 57 35 61 13 2 21 11 21 23 0
10 5 19 10 19 6 0 10 -28 10 -63z m70 4 c0 -48 3 -60 18 -64 9 -3 -1 -5 -23
-5 -22 0 -34 2 -27 5 7 3 12 25 12 58 0 33 -5 55 -12 58 -7 3 -3 6 10 6 20 1
22 -3 22 -58z m400 49 c0 -5 -4 -10 -10 -10 -5 0 -10 5 -10 10 0 6 5 10 10 10
6 0 10 -4 10 -10z m400 0 c0 -5 -4 -10 -10 -10 -5 0 -10 5 -10 10 0 6 5 10 10
10 6 0 10 -4 10 -10z m830 -53 l0 -64 -35 -1 c-30 -1 -36 2 -41 25 -8 32 6 57
35 61 13 2 21 11 21 23 0 10 5 19 10 19 6 0 10 -28 10 -63z m583 53 c-13 -5
-23 -16 -23 -25 0 -8 10 -16 23 -16 l22 -2 -22 -4 c-19 -4 -23 -12 -25 -41
l-1 -37 -4 38 c-3 26 -9 37 -21 38 -15 1 -15 2 1 6 9 2 17 12 17 22 0 23 9 31
34 30 20 0 20 -1 -1 -9z m287 -49 c0 -48 3 -60 18 -64 9 -3 -1 -5 -23 -5 -22
0 -34 2 -27 5 7 3 12 25 12 58 0 33 -5 55 -12 58 -7 3 -3 6 10 6 20 1 22 -3
22 -58z m500 0 c0 -48 3 -60 18 -64 9 -3 -1 -5 -23 -5 -22 0 -34 2 -27 5 7 3
12 25 12 58 0 33 -5 55 -12 58 -7 3 -3 6 10 6 20 1 22 -3 22 -58z m400 49 c0
-5 -4 -10 -10 -10 -5 0 -10 5 -10 10 0 6 5 10 10 10 6 0 10 -4 10 -10z m1030
-53 l0 -64 -35 -1 c-30 -1 -36 2 -41 25 -8 32 6 57 35 61 13 2 21 11 21 23 0
10 5 19 10 19 6 0 10 -28 10 -63z m-1840 38 c0 -8 10 -16 23 -16 l22 -2 -22
-4 c-19 -4 -23 -11 -23 -38 0 -27 5 -35 23 -38 15 -4 12 -5 -8 -4 -27 2 -30 6
-33 37 -2 19 -9 38 -15 42 -9 6 -9 8 1 8 6 0 12 7 12 15 0 8 5 15 10 15 6 0
10 -7 10 -15z m-2777 -2 c-8 -3 -13 -23 -13 -48 0 -25 5 -45 13 -48 6 -3 -4
-5 -23 -5 -19 0 -29 2 -22 5 7 3 12 23 12 48 0 25 -5 45 -12 48 -7 3 3 5 22 5
19 0 29 -2 23 -5z m505 0 c-14 -3 -18 -15 -18 -54 0 -27 -4 -49 -10 -49 -5 0
-10 22 -10 49 0 39 -4 51 -17 54 -10 3 2 5 27 5 25 0 37 -2 28 -5z m1702 -8
c7 -8 13 -26 13 -40 0 -35 -20 -55 -54 -55 -28 0 -29 1 -29 55 0 54 1 55 29
55 16 0 34 -7 41 -15z m1696 -15 c0 -14 4 -31 8 -38 11 -19 -13 -42 -43 -41
l-26 1 25 7 c33 9 40 41 8 42 l-23 0 23 10 c29 11 24 31 -9 41 -22 6 -21 7 6
5 25 -2 30 -6 31 -27z m103 16 c17 -20 10 -77 -11 -90 -26 -16 -52 4 -56 43
-4 36 12 61 38 61 10 0 23 -6 29 -14z m-6319 -45 c0 -29 5 -41 18 -44 9 -3 -1
-5 -23 -5 -22 0 -34 2 -27 5 6 2 12 20 12 38 0 18 -6 36 -12 38 -7 3 -3 6 10
6 19 1 22 -4 22 -38z m500 0 c0 -29 5 -41 18 -44 9 -3 -1 -5 -23 -5 -22 0 -34
2 -27 5 6 2 12 20 12 38 0 18 -6 36 -12 38 -7 3 -3 6 10 6 19 1 22 -4 22 -38z
m318 27 c22 -22 13 -38 -19 -38 -39 0 -34 -22 7 -32 28 -6 28 -6 -5 -5 -43 2
-59 26 -43 61 12 28 40 34 60 14z m1800 0 c22 -22 13 -38 -19 -38 -39 0 -34
-22 7 -32 28 -6 28 -6 -5 -5 -43 2 -59 26 -43 61 12 28 40 34 60 14z m282 -27
c0 -29 5 -41 18 -44 9 -3 -1 -5 -23 -5 -22 0 -34 2 -27 5 6 2 12 20 12 38 0
18 -6 36 -12 38 -7 3 -3 6 10 6 19 1 22 -4 22 -38z m60 -16 l-8 -40 -1 50 c-1
29 3 45 8 40 5 -6 6 -28 1 -50z m68 6 l-1 -46 -4 43 c-5 50 -23 47 -23 -4 0
-49 -17 -42 -21 9 -4 42 -3 44 24 44 26 0 27 -2 25 -46z m90 37 c22 -22 13
-38 -19 -38 -39 0 -34 -22 7 -32 28 -6 28 -6 -5 -5 -43 2 -59 26 -43 61 12 28
40 34 60 14z m182 -27 c0 -29 5 -41 18 -44 9 -3 -1 -5 -23 -5 -22 0 -34 2 -27
5 6 2 12 20 12 38 0 18 -6 36 -12 38 -7 3 -3 6 10 6 19 1 22 -4 22 -38z m122
27 c11 -18 10 -78 -2 -78 -5 0 -10 18 -10 41 0 33 -3 40 -17 37 -12 -2 -20
-16 -24 -43 l-6 -40 -2 45 c-1 43 1 46 26 48 15 1 30 -4 35 -10z m192 3 c4 -5
-2 -7 -13 -4 -25 6 -38 -15 -14 -24 34 -12 44 -24 32 -39 -13 -16 -45 -19 -53
-5 -3 4 6 6 19 3 33 -6 33 16 0 28 -24 9 -32 29 -18 43 9 10 41 8 47 -2z m104
-3 c22 -22 13 -38 -19 -38 -39 0 -34 -22 7 -32 28 -6 28 -6 -5 -5 -43 2 -59
26 -43 61 12 28 40 34 60 14z m85 5 c-14 -3 -25 -14 -29 -29 -7 -28 0 -39 31
-47 12 -4 9 -5 -9 -4 -19 1 -31 9 -37 23 -10 29 15 64 44 63 l22 -2 -22 -4z
m117 -7 c28 -35 -11 -93 -47 -70 -36 22 -23 84 17 84 10 0 23 -7 30 -14z m102
2 c11 -18 10 -78 -2 -78 -5 0 -10 18 -10 41 0 33 -3 40 -17 37 -12 -2 -20 -16
-24 -43 l-6 -40 -2 45 c-1 43 1 46 26 48 15 1 30 -4 35 -10z m192 3 c4 -5 -2
-7 -13 -4 -25 6 -38 -15 -14 -24 34 -12 44 -24 32 -39 -13 -16 -45 -19 -53 -5
-3 4 6 6 19 3 33 -6 33 16 0 28 -24 9 -32 29 -18 43 9 10 41 8 47 -2z m404 -3
c22 -22 13 -38 -19 -38 -39 0 -34 -22 7 -32 28 -6 28 -6 -5 -5 -43 2 -59 26
-43 61 12 28 40 34 60 14z m200 0 c7 -7 12 -26 12 -43 0 -29 -3 -32 -35 -33
-19 -1 -37 3 -40 9 -9 14 14 39 36 39 11 0 19 7 19 16 0 12 -7 15 -25 12 -13
-3 -22 -1 -19 3 8 13 38 11 52 -3z m70 -66 c12 2 18 15 20 41 4 52 22 47 22
-7 0 -44 0 -44 -32 -43 -32 2 -33 4 -34 45 l-1 42 4 -41 c3 -31 8 -40 21 -37z
m387 48 c9 -41 22 -46 30 -10 4 16 11 33 17 36 7 4 8 -2 3 -17 -26 -82 -36
-87 -59 -29 -19 47 -19 50 -7 50 5 0 12 -13 16 -30z m143 18 c7 -7 12 -26 12
-43 0 -29 -3 -32 -35 -33 -19 -1 -37 3 -40 9 -9 14 14 39 36 39 11 0 19 7 19
16 0 12 -7 15 -25 12 -13 -3 -22 -1 -19 3 8 13 38 11 52 -3z m170 -66 c12 2
18 15 20 41 4 52 22 47 22 -7 0 -44 0 -44 -32 -43 -32 2 -33 4 -34 45 l-1 42
4 -41 c3 -31 8 -40 21 -37z m130 66 c22 -22 13 -38 -19 -38 -39 0 -34 -22 7
-32 28 -6 28 -6 -5 -5 -43 2 -59 26 -43 61 12 28 40 34 60 14z m182 -27 c0
-29 5 -41 18 -44 9 -3 -1 -5 -23 -5 -22 0 -34 2 -27 5 6 2 12 20 12 38 0 18
-6 36 -12 38 -7 3 -3 6 10 6 19 1 22 -4 22 -38z m114 30 c4 -5 -2 -7 -13 -4
-25 6 -38 -15 -14 -24 34 -12 44 -24 32 -39 -13 -16 -45 -19 -53 -5 -3 4 6 6
19 3 33 -6 33 16 0 28 -24 9 -32 29 -18 43 9 10 41 8 47 -2z m500 0 c4 -5 -2
-7 -13 -4 -25 6 -38 -15 -14 -24 34 -12 44 -24 32 -39 -13 -16 -45 -19 -53 -5
-3 4 6 6 19 3 33 -6 33 16 0 28 -24 9 -32 29 -18 43 9 10 41 8 47 -2z m104 -3
c22 -22 13 -38 -19 -38 -39 0 -34 -22 7 -32 28 -6 28 -6 -5 -5 -43 2 -59 26
-43 61 12 28 40 34 60 14z m85 5 c-14 -3 -25 -14 -29 -29 -7 -28 0 -39 31 -47
12 -4 9 -5 -9 -4 -19 1 -31 9 -37 23 -10 29 15 64 44 63 l22 -2 -22 -4z m117
-7 c28 -35 -11 -93 -47 -70 -36 22 -23 84 17 84 10 0 23 -7 30 -14z m194 5 c4
-5 -2 -7 -13 -4 -25 6 -38 -15 -14 -24 34 -12 44 -24 32 -39 -13 -16 -45 -19
-53 -5 -3 4 6 6 19 3 33 -6 33 16 0 28 -24 9 -32 29 -18 43 9 10 41 8 47 -2z
m-7106 -38 c-10 -2 -26 -2 -35 0 -10 3 -2 5 17 5 19 0 27 -2 18 -5z m400 0
c-10 -2 -26 -2 -35 0 -10 3 -2 5 17 5 19 0 27 -2 18 -5z m100 0 c-10 -2 -26
-2 -35 0 -10 3 -2 5 17 5 19 0 27 -2 18 -5z m-303 -23 c9 -15 -14 -50 -33 -50
-16 1 -16 1 0 10 10 6 14 18 11 30 -5 20 11 28 22 10z m4195 -5 c0 -8 -4 -15
-10 -15 -5 0 -10 7 -10 15 0 8 5 15 10 15 6 0 10 -7 10 -15z m-4300 -150 c20
0 26 -6 28 -28 4 -35 -13 -57 -44 -57 -23 0 -24 3 -23 68 1 40 4 57 8 42 4
-18 13 -25 31 -25z m200 35 c0 -5 -4 -10 -10 -10 -5 0 -10 5 -10 10 0 6 5 10
10 10 6 0 10 -4 10 -10z m600 -35 c20 0 26 -6 28 -28 4 -35 -13 -57 -44 -57
-23 0 -24 3 -23 68 1 40 4 57 8 42 4 -18 13 -25 31 -25z m200 35 c0 -5 -4 -10
-10 -10 -5 0 -10 5 -10 10 0 6 5 10 10 10 6 0 10 -4 10 -10z m192 -32 c11 3
24 -1 29 -9 12 -19 11 -79 -1 -79 -5 0 -10 18 -10 41 0 33 -3 40 -17 37 -12
-2 -20 -16 -24 -43 -5 -31 -6 -23 -6 30 0 39 2 58 4 44 3 -21 8 -26 25 -21z
m1208 32 c0 -5 -4 -10 -10 -10 -5 0 -10 5 -10 10 0 6 5 10 10 10 6 0 10 -4 10
-10z m200 0 c0 -5 -4 -10 -10 -10 -5 0 -10 5 -10 10 0 6 5 10 10 10 6 0 10 -4
10 -10z m700 -49 c0 -48 3 -60 18 -64 9 -3 -1 -5 -23 -5 -22 0 -34 2 -27 5 7
3 12 25 12 58 0 33 -5 55 -12 58 -7 3 -3 6 10 6 20 1 22 -3 22 -58z m513 49
c-13 -5 -23 -16 -23 -25 0 -8 10 -16 23 -16 l22 -2 -22 -4 c-19 -4 -23 -12
-25 -41 l-1 -37 -4 38 c-3 26 -9 37 -21 38 -15 1 -15 2 1 6 9 2 17 12 17 22 0
23 9 31 34 30 20 0 20 -1 -1 -9z m187 -35 c20 0 26 -6 28 -28 4 -35 -13 -57
-44 -57 -23 0 -24 3 -23 68 1 40 4 57 8 42 4 -18 13 -25 31 -25z m200 35 c0
-5 -4 -10 -10 -10 -5 0 -10 5 -10 10 0 6 5 10 10 10 6 0 10 -4 10 -10z m192
-32 c11 3 24 -1 29 -9 12 -19 11 -79 -1 -79 -5 0 -10 18 -10 41 0 33 -3 40
-17 37 -12 -2 -20 -16 -24 -43 -5 -31 -6 -23 -6 30 0 39 2 58 4 44 3 -21 8
-26 25 -21z m-3102 17 c0 -8 10 -16 23 -16 l22 -2 -22 -4 c-19 -4 -23 -11 -23
-38 0 -27 5 -35 23 -38 15 -4 12 -5 -8 -4 -27 2 -30 6 -33 37 -2 19 -9 38 -15
42 -9 6 -9 8 1 8 6 0 12 7 12 15 0 8 5 15 10 15 6 0 10 -7 10 -15z m3200 0 c0
-8 10 -16 23 -16 l22 -2 -22 -4 c-19 -4 -23 -11 -23 -38 0 -27 5 -35 23 -38
15 -4 12 -5 -8 -4 -27 2 -30 6 -33 37 -2 19 -9 38 -15 42 -9 6 -9 8 1 8 6 0
12 7 12 15 0 8 5 15 10 15 6 0 10 -7 10 -15z m-2213 -15 c3 -11 9 -20 13 -20
5 0 12 9 15 20 10 31 25 24 25 -12 0 -18 3 -43 6 -55 4 -14 2 -23 -5 -23 -6 0
-11 20 -12 48 -1 44 -2 45 -12 20 -13 -34 -22 -35 -32 -5 -7 18 -9 15 -15 -23
l-7 -45 -1 58 c-2 56 14 80 25 37z m-2217 -55 l-8 -40 -1 50 c-1 29 3 45 8 40
5 -6 6 -28 1 -50z m68 6 l-1 -46 -4 43 c-5 50 -23 47 -23 -4 0 -49 -17 -42
-21 9 -4 42 -3 44 24 44 26 0 27 -2 25 -46z m72 10 c0 -29 5 -41 18 -44 9 -3
-1 -5 -23 -5 -22 0 -34 2 -27 5 6 2 12 20 12 38 0 18 -6 36 -12 38 -7 3 -3 6
10 6 19 1 22 -4 22 -38z m122 27 c11 -18 10 -78 -2 -78 -5 0 -10 18 -10 41 0
33 -3 40 -17 37 -12 -2 -20 -16 -24 -43 l-6 -40 -2 45 c-1 43 1 46 26 48 15 1
30 -4 35 -10z m606 -8 c5 -13 3 -13 -11 -1 -23 18 -45 0 -50 -42 -3 -25 -4
-22 -5 13 -2 45 -2 46 30 45 19 0 33 -6 36 -15z m72 -19 c0 -29 5 -41 18 -44
9 -3 -1 -5 -23 -5 -22 0 -34 2 -27 5 6 2 12 20 12 38 0 18 -6 36 -12 38 -7 3
-3 6 10 6 19 1 22 -4 22 -38z m121 12 c-5 -18 -15 -29 -29 -31 -31 -5 -27 -20
6 -24 19 -2 27 -9 27 -23 0 -16 -7 -20 -35 -20 l-35 0 2 49 c3 67 8 76 42 76
27 0 29 -2 22 -27z m301 15 c11 -18 10 -78 -2 -78 -5 0 -10 18 -10 41 0 33 -3
40 -17 37 -12 -2 -20 -16 -24 -43 l-6 -40 -2 45 c-1 43 1 46 26 48 15 1 30 -4
35 -10z m96 0 c22 -22 13 -38 -19 -38 -39 0 -34 -22 7 -32 28 -6 28 -6 -5 -5
-43 2 -59 26 -43 61 12 28 40 34 60 14z m96 3 c4 -5 -2 -7 -13 -4 -25 6 -38
-15 -14 -24 34 -12 44 -24 32 -39 -13 -16 -45 -19 -53 -5 -3 4 6 6 19 3 33 -6
33 16 0 28 -24 9 -32 29 -18 43 9 10 41 8 47 -2z m100 0 c4 -5 -2 -7 -13 -4
-25 6 -38 -15 -14 -24 34 -12 44 -24 32 -39 -13 -16 -45 -19 -53 -5 -3 4 6 6
19 3 33 -6 33 16 0 28 -24 9 -32 29 -18 43 9 10 41 8 47 -2z m146 -46 l-8 -40
-1 50 c-1 29 3 45 8 40 5 -6 6 -28 1 -50z m68 6 l-1 -46 -4 43 c-5 50 -23 47
-23 -4 0 -49 -17 -42 -21 9 -4 42 -3 44 24 44 26 0 27 -2 25 -46z m90 37 c7
-7 12 -26 12 -43 0 -29 -3 -32 -35 -33 -19 -1 -37 3 -40 9 -9 14 14 39 36 39
11 0 19 7 19 16 0 12 -7 15 -25 12 -13 -3 -22 -1 -19 3 8 13 38 11 52 -3z m62
-5 c10 -17 10 -17 20 0 6 9 16 17 22 17 6 0 4 -9 -5 -23 -13 -20 -13 -26 -1
-42 18 -25 8 -34 -11 -9 -14 18 -16 18 -26 2 -5 -10 -14 -18 -20 -18 -5 0 -3
10 6 23 13 21 13 25 -1 45 -8 12 -11 22 -5 22 5 0 15 -8 21 -17z m320 -22 c0
-29 5 -41 18 -44 9 -3 -1 -5 -23 -5 -22 0 -34 2 -27 5 6 2 12 20 12 38 0 18
-6 36 -12 38 -7 3 -3 6 10 6 19 1 22 -4 22 -38z m122 27 c11 -18 10 -78 -2
-78 -5 0 -10 18 -10 41 0 33 -3 40 -17 37 -12 -2 -20 -16 -24 -43 l-6 -40 -2
45 c-1 43 1 46 26 48 15 1 30 -4 35 -10z m78 -27 c0 -29 5 -41 18 -44 9 -3 -1
-5 -23 -5 -22 0 -34 2 -27 5 6 2 12 20 12 38 0 18 -6 36 -12 38 -7 3 -3 6 10
6 19 1 22 -4 22 -38z m60 -16 l-8 -40 -1 50 c-1 29 3 45 8 40 5 -6 6 -28 1
-50z m68 6 l-1 -46 -4 43 c-5 50 -23 47 -23 -4 0 -49 -17 -42 -21 9 -4 42 -3
44 24 44 26 0 27 -2 25 -46z m60 -29 c12 2 18 15 20 41 4 52 22 47 22 -7 0
-44 0 -44 -32 -43 -32 2 -33 4 -34 45 l-1 42 4 -41 c3 -31 8 -40 21 -37z m134
66 c11 -18 10 -78 -2 -78 -5 0 -10 18 -10 41 0 33 -3 40 -17 37 -12 -2 -20
-16 -24 -43 l-6 -40 -2 45 c-1 43 1 46 26 48 15 1 30 -4 35 -10z m153 -18 c9
-41 22 -46 30 -10 4 16 11 33 17 36 7 4 8 -2 3 -17 -26 -82 -36 -87 -59 -29
-19 47 -19 50 -7 50 5 0 12 -13 16 -30z m143 18 c7 -7 12 -26 12 -43 0 -29 -3
-32 -35 -33 -19 -1 -37 3 -40 9 -9 14 14 39 36 39 11 0 19 7 19 16 0 12 -7 15
-25 12 -13 -3 -22 -1 -19 3 8 13 38 11 52 -3z m170 -66 c12 2 18 15 20 41 4
52 22 47 22 -7 0 -44 0 -44 -32 -43 -32 2 -33 4 -34 45 l-1 42 4 -41 c3 -31 8
-40 21 -37z m130 66 c22 -22 13 -38 -19 -38 -39 0 -34 -22 7 -32 28 -6 28 -6
-5 -5 -43 2 -59 26 -43 61 12 28 40 34 60 14z m202 -2 c28 -35 -11 -93 -47
-70 -36 22 -23 84 17 84 10 0 23 -7 30 -14z m408 -6 c5 -13 3 -13 -11 -1 -23
18 -45 0 -50 -42 -3 -25 -4 -22 -5 13 -2 45 -2 46 30 45 19 0 33 -6 36 -15z
m72 -19 c0 -29 5 -41 18 -44 9 -3 -1 -5 -23 -5 -22 0 -34 2 -27 5 6 2 12 20
12 38 0 18 -6 36 -12 38 -7 3 -3 6 10 6 19 1 22 -4 22 -38z m121 12 c-5 -18
-15 -29 -29 -31 -31 -5 -27 -20 6 -24 19 -2 27 -9 27 -23 0 -16 -7 -20 -35
-20 l-35 0 2 49 c3 67 8 76 42 76 27 0 29 -2 22 -27z m301 15 c11 -18 10 -78
-2 -78 -5 0 -10 18 -10 41 0 33 -3 40 -17 37 -12 -2 -20 -16 -24 -43 l-6 -40
-2 45 c-1 43 1 46 26 48 15 1 30 -4 35 -10z m96 0 c22 -22 13 -38 -19 -38 -39
0 -34 -22 7 -32 28 -6 28 -6 -5 -5 -43 2 -59 26 -43 61 12 28 40 34 60 14z
m96 3 c4 -5 -2 -7 -13 -4 -25 6 -38 -15 -14 -24 34 -12 44 -24 32 -39 -13 -16
-45 -19 -53 -5 -3 4 6 6 19 3 33 -6 33 16 0 28 -24 9 -32 29 -18 43 9 10 41 8
47 -2z m100 0 c4 -5 -2 -7 -13 -4 -25 6 -38 -15 -14 -24 34 -12 44 -24 32 -39
-13 -16 -45 -19 -53 -5 -3 4 6 6 19 3 33 -6 33 16 0 28 -24 9 -32 29 -18 43 9
10 41 8 47 -2z m-5006 -38 c-10 -2 -26 -2 -35 0 -10 3 -2 5 17 5 19 0 27 -2
18 -5z m700 0 c-10 -2 -26 -2 -35 0 -10 3 -2 5 17 5 19 0 27 -2 18 -5z m100 0
c-10 -2 -26 -2 -35 0 -10 3 -2 5 17 5 19 0 27 -2 18 -5z m1100 0 c-10 -2 -26
-2 -35 0 -10 3 -2 5 17 5 19 0 27 -2 18 -5z m-1403 -23 c9 -15 -14 -50 -33
-50 -16 1 -16 1 0 10 10 6 14 18 11 30 -5 20 11 28 22 10z m4595 -5 c0 -8 -4
-15 -10 -15 -5 0 -10 7 -10 15 0 8 5 15 10 15 6 0 10 -7 10 -15z m-2500 -164
c0 -48 3 -60 18 -64 9 -3 -1 -5 -23 -5 -22 0 -34 2 -27 5 7 3 12 25 12 58 0
33 -5 55 -12 58 -7 3 -3 6 10 6 20 1 22 -3 22 -58z m100 49 c0 -5 -4 -10 -10
-10 -5 0 -10 5 -10 10 0 6 5 10 10 10 6 0 10 -4 10 -10z m130 -53 l0 -64 -35
-1 c-30 -1 -36 2 -41 25 -8 32 6 57 35 61 13 2 21 11 21 23 0 10 5 19 10 19 6
0 10 -28 10 -63z m370 4 c0 -48 3 -60 18 -64 9 -3 -1 -5 -23 -5 -22 0 -34 2
-27 5 7 3 12 25 12 58 0 33 -5 55 -12 58 -7 3 -3 6 10 6 20 1 22 -3 22 -58z
m813 49 c-13 -5 -23 -16 -23 -25 0 -8 10 -16 23 -16 l22 -2 -22 -4 c-19 -4
-23 -12 -25 -41 l-1 -37 -4 38 c-3 26 -9 37 -21 38 -15 1 -15 2 1 6 9 2 17 12
17 22 0 23 9 31 34 30 20 0 20 -1 -1 -9z m677 -15 c0 -8 10 -16 23 -16 l22 -2
-22 -4 c-19 -4 -23 -11 -23 -38 0 -27 5 -35 23 -38 15 -4 12 -5 -8 -4 -27 2
-30 6 -33 37 -2 19 -9 38 -15 42 -9 6 -9 8 1 8 6 0 12 7 12 15 0 8 5 15 10 15
6 0 10 -7 10 -15z m-2319 -35 c7 -22 15 -40 19 -40 4 0 12 18 19 40 6 22 16
40 21 40 5 0 1 -24 -9 -52 -10 -29 -24 -53 -31 -53 -7 0 -21 24 -31 53 -10 28
-14 52 -9 52 5 0 15 -18 21 -40z m2148 26 c17 -20 10 -77 -11 -90 -26 -16 -52
4 -56 43 -4 36 12 61 38 61 10 0 23 -6 29 -14z m499 -14 c2 -14 -5 -33 -18
-47 l-22 -23 28 -5 c21 -3 17 -4 -15 -6 l-43 -1 31 36 c35 39 36 59 3 58 -12
0 -19 3 -16 8 12 18 49 3 52 -20z m80 21 c-33 -5 -37 -30 -7 -35 12 -2 27 -11
33 -21 9 -15 7 -21 -8 -33 -11 -8 -29 -14 -40 -13 -18 1 -17 2 4 8 32 9 34 45
3 49 -17 3 -23 10 -23 28 0 21 4 24 33 23 30 -2 30 -2 5 -6z m100 0 c-33 -5
-37 -30 -7 -35 12 -2 27 -11 33 -21 9 -15 7 -21 -8 -33 -11 -8 -29 -14 -40
-13 -18 1 -17 2 4 8 32 9 34 45 3 49 -17 3 -23 10 -23 28 0 21 4 24 33 23 30
-2 30 -2 5 -6z m-2680 -25 c7 -7 12 -26 12 -43 0 -29 -3 -32 -35 -33 -19 -1
-37 3 -40 9 -9 14 14 39 36 39 11 0 19 7 19 16 0 12 -7 15 -25 12 -13 -3 -22
-1 -19 3 8 13 38 11 52 -3z m182 -27 c0 -29 5 -41 18 -44 9 -3 -1 -5 -23 -5
-22 0 -34 2 -27 5 6 2 12 20 12 38 0 18 -6 36 -12 38 -7 3 -3 6 10 6 19 1 22
-4 22 -38z m275 9 c9 -41 22 -46 30 -10 4 16 11 33 17 36 7 4 8 -2 3 -17 -26
-82 -36 -87 -59 -29 -19 47 -19 50 -7 50 5 0 12 -13 16 -30z m143 18 c7 -7 12
-26 12 -43 0 -29 -3 -32 -35 -33 -19 -1 -37 3 -40 9 -9 14 14 39 36 39 11 0
19 7 19 16 0 12 -7 15 -25 12 -13 -3 -22 -1 -19 3 8 13 38 11 52 -3z m170 -66
c12 2 18 15 20 41 4 52 22 47 22 -7 0 -44 0 -44 -32 -43 -32 2 -33 4 -34 45
l-1 42 4 -41 c3 -31 8 -40 21 -37z m130 66 c22 -22 13 -38 -19 -38 -39 0 -34
-22 7 -32 28 -6 28 -6 -5 -5 -43 2 -59 26 -43 61 12 28 40 34 60 14z m200 0
c7 -7 12 -26 12 -43 0 -29 -3 -32 -35 -33 -19 -1 -37 3 -40 9 -9 14 14 39 36
39 11 0 19 7 19 16 0 12 -7 15 -25 12 -13 -3 -22 -1 -19 3 8 13 38 11 52 -3z
m110 -8 c5 -13 3 -13 -11 -1 -23 18 -45 0 -50 -42 -3 -25 -4 -22 -5 13 -2 45
-2 46 30 45 19 0 33 -6 36 -15z m90 8 c22 -22 13 -38 -19 -38 -39 0 -34 -22 7
-32 28 -6 28 -6 -5 -5 -43 2 -59 26 -43 61 12 28 40 34 60 14z m310 -8 c5 -13
3 -13 -11 -1 -23 18 -45 0 -50 -42 -3 -25 -4 -22 -5 13 -2 45 -2 46 30 45 19
0 33 -6 36 -15z m92 6 c28 -35 -11 -93 -47 -70 -36 22 -23 84 17 84 10 0 23
-7 30 -14z m40 -41 l-8 -40 -1 50 c-1 29 3 45 8 40 5 -6 6 -28 1 -50z m68 6
l-1 -46 -4 43 c-5 50 -23 47 -23 -4 0 -49 -17 -42 -21 9 -4 42 -3 44 24 44 26
0 27 -2 25 -46z m492 35 c28 -35 -11 -93 -47 -70 -36 22 -23 84 17 84 10 0 23
-7 30 -14z m-4720 -211 c20 0 26 -6 28 -28 4 -35 -13 -57 -44 -57 -23 0 -24 3
-23 68 1 40 4 57 8 42 4 -18 13 -25 31 -25z m200 35 c0 -5 -4 -10 -10 -10 -5
0 -10 5 -10 10 0 6 5 10 10 10 6 0 10 -4 10 -10z m600 -35 c20 0 26 -6 28 -28
4 -35 -13 -57 -44 -57 -23 0 -24 3 -23 68 1 40 4 57 8 42 4 -18 13 -25 31 -25z
m200 35 c0 -5 -4 -10 -10 -10 -5 0 -10 5 -10 10 0 6 5 10 10 10 6 0 10 -4 10
-10z m192 -32 c11 3 24 -1 29 -9 12 -19 11 -79 -1 -79 -5 0 -10 18 -10 41 0
33 -3 40 -17 37 -12 -2 -20 -16 -24 -43 -5 -31 -6 -23 -6 30 0 39 2 58 4 44 3
-21 8 -26 25 -21z m1408 32 c0 -5 -4 -10 -10 -10 -5 0 -10 5 -10 10 0 6 5 10
10 10 6 0 10 -4 10 -10z m700 -49 c0 -48 3 -60 18 -64 9 -3 -1 -5 -23 -5 -22
0 -34 2 -27 5 7 3 12 25 12 58 0 33 -5 55 -12 58 -7 3 -3 6 10 6 20 1 22 -3
22 -58z m513 49 c-13 -5 -23 -16 -23 -25 0 -8 10 -16 23 -16 l22 -2 -22 -4
c-19 -4 -23 -12 -25 -41 l-1 -37 -4 38 c-3 26 -9 37 -21 38 -15 1 -15 2 1 6 9
2 17 12 17 22 0 23 9 31 34 30 20 0 20 -1 -1 -9z m187 -35 c20 0 26 -6 28 -28
4 -35 -13 -57 -44 -57 -23 0 -24 3 -23 68 1 40 4 57 8 42 4 -18 13 -25 31 -25z
m200 35 c0 -5 -4 -10 -10 -10 -5 0 -10 5 -10 10 0 6 5 10 10 10 6 0 10 -4 10
-10z m192 -32 c11 3 24 -1 29 -9 12 -19 11 -79 -1 -79 -5 0 -10 18 -10 41 0
33 -3 40 -17 37 -12 -2 -20 -16 -24 -43 -5 -31 -6 -23 -6 30 0 39 2 58 4 44 3
-21 8 -26 25 -21z m-3102 17 c0 -8 10 -16 23 -16 l22 -2 -22 -4 c-19 -4 -23
-11 -23 -38 0 -27 5 -35 23 -38 15 -4 12 -5 -8 -4 -27 2 -30 6 -33 37 -2 19
-9 38 -15 42 -9 6 -9 8 1 8 6 0 12 7 12 15 0 8 5 15 10 15 6 0 10 -7 10 -15z
m3200 0 c0 -8 10 -16 23 -16 l22 -2 -22 -4 c-19 -4 -23 -11 -23 -38 0 -27 5
-35 23 -38 15 -4 12 -5 -8 -4 -27 2 -30 6 -33 37 -2 19 -9 38 -15 42 -9 6 -9
8 1 8 6 0 12 7 12 15 0 8 5 15 10 15 6 0 10 -7 10 -15z m-2213 -15 c3 -11 9
-20 13 -20 5 0 12 9 15 20 10 31 25 24 25 -12 0 -18 3 -43 6 -55 4 -14 2 -23
-5 -23 -6 0 -11 20 -12 48 -1 44 -2 45 -12 20 -13 -34 -22 -35 -32 -5 -7 18
-9 15 -15 -23 l-7 -45 -1 58 c-2 56 14 80 25 37z m-2217 -55 l-8 -40 -1 50
c-1 29 3 45 8 40 5 -6 6 -28 1 -50z m68 6 l-1 -46 -4 43 c-5 50 -23 47 -23 -4
0 -49 -17 -42 -21 9 -4 42 -3 44 24 44 26 0 27 -2 25 -46z m72 10 c0 -29 5
-41 18 -44 9 -3 -1 -5 -23 -5 -22 0 -34 2 -27 5 6 2 12 20 12 38 0 18 -6 36
-12 38 -7 3 -3 6 10 6 19 1 22 -4 22 -38z m122 27 c11 -18 10 -78 -2 -78 -5 0
-10 18 -10 41 0 33 -3 40 -17 37 -12 -2 -20 -16 -24 -43 l-6 -40 -2 45 c-1 43
1 46 26 48 15 1 30 -4 35 -10z m606 -8 c5 -13 3 -13 -11 -1 -23 18 -45 0 -50
-42 -3 -25 -4 -22 -5 13 -2 45 -2 46 30 45 19 0 33 -6 36 -15z m72 -19 c0 -29
5 -41 18 -44 9 -3 -1 -5 -23 -5 -22 0 -34 2 -27 5 6 2 12 20 12 38 0 18 -6 36
-12 38 -7 3 -3 6 10 6 19 1 22 -4 22 -38z m121 12 c-5 -18 -15 -29 -29 -31
-31 -5 -27 -20 6 -24 19 -2 27 -9 27 -23 0 -16 -7 -20 -35 -20 l-35 0 2 49 c3
67 8 76 42 76 27 0 29 -2 22 -27z m301 15 c11 -18 10 -78 -2 -78 -5 0 -10 18
-10 41 0 33 -3 40 -17 37 -12 -2 -20 -16 -24 -43 l-6 -40 -2 45 c-1 43 1 46
26 48 15 1 30 -4 35 -10z m96 0 c22 -22 13 -38 -19 -38 -39 0 -34 -22 7 -32
28 -6 28 -6 -5 -5 -43 2 -59 26 -43 61 12 28 40 34 60 14z m96 3 c4 -5 -2 -7
-13 -4 -25 6 -38 -15 -14 -24 34 -12 44 -24 32 -39 -13 -16 -45 -19 -53 -5 -3
4 6 6 19 3 33 -6 33 16 0 28 -24 9 -32 29 -18 43 9 10 41 8 47 -2z m100 0 c4
-5 -2 -7 -13 -4 -25 6 -38 -15 -14 -24 34 -12 44 -24 32 -39 -13 -16 -45 -19
-53 -5 -3 4 6 6 19 3 33 -6 33 16 0 28 -24 9 -32 29 -18 43 9 10 41 8 47 -2z
m146 -46 l-8 -40 -1 50 c-1 29 3 45 8 40 5 -6 6 -28 1 -50z m68 6 l-1 -46 -4
43 c-5 50 -23 47 -23 -4 0 -49 -17 -42 -21 9 -4 42 -3 44 24 44 26 0 27 -2 25
-46z m90 37 c7 -7 12 -26 12 -43 0 -29 -3 -32 -35 -33 -19 -1 -37 3 -40 9 -9
14 14 39 36 39 11 0 19 7 19 16 0 12 -7 15 -25 12 -13 -3 -22 -1 -19 3 8 13
38 11 52 -3z m62 -5 c10 -17 10 -17 20 0 6 9 16 17 22 17 6 0 4 -9 -5 -23 -13
-20 -13 -26 -1 -42 18 -25 8 -34 -11 -9 -14 18 -16 18 -26 2 -5 -10 -14 -18
-20 -18 -5 0 -3 10 6 23 13 21 13 25 -1 45 -8 12 -11 22 -5 22 5 0 15 -8 21
-17z m338 5 c7 -7 12 -26 12 -43 0 -29 -3 -32 -35 -33 -19 -1 -37 3 -40 9 -9
14 14 39 36 39 11 0 19 7 19 16 0 12 -7 15 -25 12 -13 -3 -22 -1 -19 3 8 13
38 11 52 -3z m62 -5 c10 -17 10 -17 20 0 6 9 16 17 22 17 6 0 4 -9 -5 -23 -13
-20 -13 -26 -1 -42 18 -25 8 -34 -11 -9 -14 18 -16 18 -26 2 -5 -10 -14 -18
-20 -18 -5 0 -3 10 6 23 13 21 13 25 -1 45 -8 12 -11 22 -5 22 5 0 15 -8 21
-17z m120 -22 c0 -29 5 -41 18 -44 9 -3 -1 -5 -23 -5 -22 0 -34 2 -27 5 6 2
12 20 12 38 0 18 -6 36 -12 38 -7 3 -3 6 10 6 19 1 22 -4 22 -38z m60 -16 l-8
-40 -1 50 c-1 29 3 45 8 40 5 -6 6 -28 1 -50z m68 6 l-1 -46 -4 43 c-5 50 -23
47 -23 -4 0 -49 -17 -42 -21 9 -4 42 -3 44 24 44 26 0 27 -2 25 -46z m60 -29
c12 2 18 15 20 41 4 52 22 47 22 -7 0 -44 0 -44 -32 -43 -32 2 -33 4 -34 45
l-1 42 4 -41 c3 -31 8 -40 21 -37z m134 66 c11 -18 10 -78 -2 -78 -5 0 -10 18
-10 41 0 33 -3 40 -17 37 -12 -2 -20 -16 -24 -43 l-6 -40 -2 45 c-1 43 1 46
26 48 15 1 30 -4 35 -10z m153 -18 c9 -41 22 -46 30 -10 4 16 11 33 17 36 7 4
8 -2 3 -17 -26 -82 -36 -87 -59 -29 -19 47 -19 50 -7 50 5 0 12 -13 16 -30z
m143 18 c7 -7 12 -26 12 -43 0 -29 -3 -32 -35 -33 -19 -1 -37 3 -40 9 -9 14
14 39 36 39 11 0 19 7 19 16 0 12 -7 15 -25 12 -13 -3 -22 -1 -19 3 8 13 38
11 52 -3z m170 -66 c12 2 18 15 20 41 4 52 22 47 22 -7 0 -44 0 -44 -32 -43
-32 2 -33 4 -34 45 l-1 42 4 -41 c3 -31 8 -40 21 -37z m130 66 c22 -22 13 -38
-19 -38 -39 0 -34 -22 7 -32 28 -6 28 -6 -5 -5 -43 2 -59 26 -43 61 12 28 40
34 60 14z m202 -2 c28 -35 -11 -93 -47 -70 -36 22 -23 84 17 84 10 0 23 -7 30
-14z m408 -6 c5 -13 3 -13 -11 -1 -23 18 -45 0 -50 -42 -3 -25 -4 -22 -5 13
-2 45 -2 46 30 45 19 0 33 -6 36 -15z m72 -19 c0 -29 5 -41 18 -44 9 -3 -1 -5
-23 -5 -22 0 -34 2 -27 5 6 2 12 20 12 38 0 18 -6 36 -12 38 -7 3 -3 6 10 6
19 1 22 -4 22 -38z m121 12 c-5 -18 -15 -29 -29 -31 -31 -5 -27 -20 6 -24 19
-2 27 -9 27 -23 0 -16 -7 -20 -35 -20 l-35 0 2 49 c3 67 8 76 42 76 27 0 29
-2 22 -27z m301 15 c11 -18 10 -78 -2 -78 -5 0 -10 18 -10 41 0 33 -3 40 -17
37 -12 -2 -20 -16 -24 -43 l-6 -40 -2 45 c-1 43 1 46 26 48 15 1 30 -4 35 -10z
m96 0 c22 -22 13 -38 -19 -38 -39 0 -34 -22 7 -32 28 -6 28 -6 -5 -5 -43 2
-59 26 -43 61 12 28 40 34 60 14z m96 3 c4 -5 -2 -7 -13 -4 -25 6 -38 -15 -14
-24 34 -12 44 -24 32 -39 -13 -16 -45 -19 -53 -5 -3 4 6 6 19 3 33 -6 33 16 0
28 -24 9 -32 29 -18 43 9 10 41 8 47 -2z m100 0 c4 -5 -2 -7 -13 -4 -25 6 -38
-15 -14 -24 34 -12 44 -24 32 -39 -13 -16 -45 -19 -53 -5 -3 4 6 6 19 3 33 -6
33 16 0 28 -24 9 -32 29 -18 43 9 10 41 8 47 -2z m-5006 -38 c-10 -2 -26 -2
-35 0 -10 3 -2 5 17 5 19 0 27 -2 18 -5z m700 0 c-10 -2 -26 -2 -35 0 -10 3
-2 5 17 5 19 0 27 -2 18 -5z m100 0 c-10 -2 -26 -2 -35 0 -10 3 -2 5 17 5 19
0 27 -2 18 -5z m1100 0 c-10 -2 -26 -2 -35 0 -10 3 -2 5 17 5 19 0 27 -2 18
-5z m-1403 -23 c9 -15 -14 -50 -33 -50 -16 1 -16 1 0 10 10 6 14 18 11 30 -5
20 11 28 22 10z m4595 -5 c0 -8 -4 -15 -10 -15 -5 0 -10 7 -10 15 0 8 5 15 10
15 6 0 10 -7 10 -15z m-2500 -164 c0 -48 3 -60 18 -64 9 -3 -1 -5 -23 -5 -22
0 -34 2 -27 5 7 3 12 25 12 58 0 33 -5 55 -12 58 -7 3 -3 6 10 6 20 1 22 -3
22 -58z m100 49 c0 -5 -4 -10 -10 -10 -5 0 -10 5 -10 10 0 6 5 10 10 10 6 0
10 -4 10 -10z m130 -53 l0 -64 -35 -1 c-30 -1 -36 2 -41 25 -8 32 6 57 35 61
13 2 21 11 21 23 0 10 5 19 10 19 6 0 10 -28 10 -63z m370 4 c0 -48 3 -60 18
-64 9 -3 -1 -5 -23 -5 -22 0 -34 2 -27 5 7 3 12 25 12 58 0 33 -5 55 -12 58
-7 3 -3 6 10 6 20 1 22 -3 22 -58z m813 49 c-13 -5 -23 -16 -23 -25 0 -8 10
-16 23 -16 l22 -2 -22 -4 c-19 -4 -23 -12 -25 -41 l-1 -37 -4 38 c-3 26 -9 37
-21 38 -15 1 -15 2 1 6 9 2 17 12 17 22 0 23 9 31 34 30 20 0 20 -1 -1 -9z
m677 -15 c0 -8 10 -16 23 -16 l22 -2 -22 -4 c-19 -4 -23 -11 -23 -38 0 -27 5
-35 23 -38 15 -4 12 -5 -8 -4 -27 2 -30 6 -33 37 -2 19 -9 38 -15 42 -9 6 -9
8 1 8 6 0 12 7 12 15 0 8 5 15 10 15 6 0 10 -7 10 -15z m-2319 -35 c7 -22 15
-40 19 -40 4 0 12 18 19 40 6 22 16 40 21 40 5 0 1 -24 -9 -52 -10 -29 -24
-53 -31 -53 -7 0 -21 24 -31 53 -10 28 -14 52 -9 52 5 0 15 -18 21 -40z m2148
26 c17 -20 10 -77 -11 -90 -26 -16 -52 4 -56 43 -4 36 12 61 38 61 10 0 23 -6
29 -14z m499 -14 c2 -14 -5 -33 -18 -47 l-22 -23 28 -5 c21 -3 17 -4 -15 -6
l-43 -1 31 36 c35 39 36 59 3 58 -12 0 -19 3 -16 8 12 18 49 3 52 -20z m80 21
c-33 -5 -37 -30 -7 -35 12 -2 27 -11 33 -21 9 -15 7 -21 -8 -33 -11 -8 -29
-14 -40 -13 -18 1 -17 2 4 8 32 9 34 45 3 49 -17 3 -23 10 -23 28 0 21 4 24
33 23 30 -2 30 -2 5 -6z m100 0 c-33 -5 -37 -30 -7 -35 12 -2 27 -11 33 -21 9
-15 7 -21 -8 -33 -11 -8 -29 -14 -40 -13 -18 1 -17 2 4 8 32 9 34 45 3 49 -17
3 -23 10 -23 28 0 21 4 24 33 23 30 -2 30 -2 5 -6z m-2680 -25 c7 -7 12 -26
12 -43 0 -29 -3 -32 -35 -33 -19 -1 -37 3 -40 9 -9 14 14 39 36 39 11 0 19 7
19 16 0 12 -7 15 -25 12 -13 -3 -22 -1 -19 3 8 13 38 11 52 -3z m182 -27 c0
-29 5 -41 18 -44 9 -3 -1 -5 -23 -5 -22 0 -34 2 -27 5 6 2 12 20 12 38 0 18
-6 36 -12 38 -7 3 -3 6 10 6 19 1 22 -4 22 -38z m275 9 c9 -41 22 -46 30 -10
4 16 11 33 17 36 7 4 8 -2 3 -17 -26 -82 -36 -87 -59 -29 -19 47 -19 50 -7 50
5 0 12 -13 16 -30z m143 18 c7 -7 12 -26 12 -43 0 -29 -3 -32 -35 -33 -19 -1
-37 3 -40 9 -9 14 14 39 36 39 11 0 19 7 19 16 0 12 -7 15 -25 12 -13 -3 -22
-1 -19 3 8 13 38 11 52 -3z m170 -66 c12 2 18 15 20 41 4 52 22 47 22 -7 0
-44 0 -44 -32 -43 -32 2 -33 4 -34 45 l-1 42 4 -41 c3 -31 8 -40 21 -37z m130
66 c22 -22 13 -38 -19 -38 -39 0 -34 -22 7 -32 28 -6 28 -6 -5 -5 -43 2 -59
26 -43 61 12 28 40 34 60 14z m200 0 c7 -7 12 -26 12 -43 0 -29 -3 -32 -35
-33 -19 -1 -37 3 -40 9 -9 14 14 39 36 39 11 0 19 7 19 16 0 12 -7 15 -25 12
-13 -3 -22 -1 -19 3 8 13 38 11 52 -3z m110 -8 c5 -13 3 -13 -11 -1 -23 18
-45 0 -50 -42 -3 -25 -4 -22 -5 13 -2 45 -2 46 30 45 19 0 33 -6 36 -15z m90
8 c22 -22 13 -38 -19 -38 -39 0 -34 -22 7 -32 28 -6 28 -6 -5 -5 -43 2 -59 26
-43 61 12 28 40 34 60 14z m310 -8 c5 -13 3 -13 -11 -1 -23 18 -45 0 -50 -42
-3 -25 -4 -22 -5 13 -2 45 -2 46 30 45 19 0 33 -6 36 -15z m92 6 c28 -35 -11
-93 -47 -70 -36 22 -23 84 17 84 10 0 23 -7 30 -14z m40 -41 l-8 -40 -1 50
c-1 29 3 45 8 40 5 -6 6 -28 1 -50z m68 6 l-1 -46 -4 43 c-5 50 -23 47 -23 -4
0 -49 -17 -42 -21 9 -4 42 -3 44 24 44 26 0 27 -2 25 -46z m492 35 c28 -35
-11 -93 -47 -70 -36 22 -23 84 17 84 10 0 23 -7 30 -14z m-4728 -208 c11 3 24
-1 29 -9 12 -19 11 -79 -1 -79 -5 0 -10 18 -10 41 0 33 -3 40 -17 37 -12 -2
-20 -16 -24 -43 -5 -31 -6 -23 -6 30 0 39 2 58 4 44 3 -21 8 -26 25 -21z m500
0 c11 3 24 -1 29 -9 12 -19 11 -79 -1 -79 -5 0 -10 18 -10 41 0 33 -3 40 -17
37 -12 -2 -20 -16 -24 -43 -5 -31 -6 -23 -6 30 0 39 2 58 4 44 3 -21 8 -26 25
-21z m208 -17 c0 -48 3 -60 18 -64 9 -3 -1 -5 -23 -5 -22 0 -34 2 -27 5 7 3
12 25 12 58 0 33 -5 55 -12 58 -7 3 -3 6 10 6 20 1 22 -3 22 -58z m1692 17
c11 3 24 -1 29 -9 12 -19 11 -79 -1 -79 -5 0 -10 18 -10 41 0 33 -3 40 -17 37
-12 -2 -20 -16 -24 -43 -5 -31 -6 -23 -6 30 0 39 2 58 4 44 3 -21 8 -26 25
-21z m108 32 c0 -5 -4 -10 -10 -10 -5 0 -10 5 -10 10 0 6 5 10 10 10 6 0 10
-4 10 -10z m292 -32 c11 3 24 -1 29 -9 12 -19 11 -79 -1 -79 -5 0 -10 18 -10
41 0 33 -3 40 -17 37 -12 -2 -20 -16 -24 -43 -5 -31 -6 -23 -6 30 0 39 2 58 4
44 3 -21 8 -26 25 -21z m208 -17 c0 -48 3 -60 18 -64 9 -3 -1 -5 -23 -5 -22 0
-34 2 -27 5 7 3 12 25 12 58 0 33 -5 55 -12 58 -7 3 -3 6 10 6 20 1 22 -3 22
-58z m-710 34 c0 -8 10 -16 23 -16 l22 -2 -22 -4 c-19 -4 -23 -11 -23 -38 0
-27 5 -35 23 -38 15 -4 12 -5 -8 -4 -27 2 -30 6 -33 37 -2 19 -9 38 -15 42 -9
6 -9 8 1 8 6 0 12 7 12 15 0 8 5 15 10 15 6 0 10 -7 10 -15z m-1672 -27 c22
-22 13 -38 -19 -38 -39 0 -34 -22 7 -32 28 -6 28 -6 -5 -5 -43 2 -59 26 -43
61 12 28 40 34 60 14z m208 -14 c8 -33 -6 -58 -34 -62 -12 -2 -23 -12 -25 -25
-2 -12 -5 7 -6 43 l-1 66 30 2 c25 2 31 -2 36 -24z m1674 -13 c0 -29 5 -41 18
-44 9 -3 -1 -5 -23 -5 -22 0 -34 2 -27 5 6 2 12 20 12 38 0 18 -6 36 -12 38
-7 3 -3 6 10 6 19 1 22 -4 22 -38z m114 30 c4 -5 -2 -7 -13 -4 -25 6 -38 -15
-14 -24 34 -12 44 -24 32 -39 -13 -16 -45 -19 -53 -5 -3 4 6 6 19 3 33 -6 33
16 0 28 -24 9 -32 29 -18 43 9 10 41 8 47 -2z m304 -3 c22 -22 13 -38 -19 -38
-39 0 -34 -22 7 -32 28 -6 28 -6 -5 -5 -43 2 -59 26 -43 61 12 28 40 34 60 14z
m208 -14 c8 -33 -6 -58 -34 -62 -12 -2 -23 -12 -25 -25 -2 -12 -5 7 -6 43 l-1
66 30 2 c25 2 31 -2 36 -24z m-3218 -21 c-10 -2 -26 -2 -35 0 -10 3 -2 5 17 5
19 0 27 -2 18 -5z m400 0 c-10 -2 -26 -2 -35 0 -10 3 -2 5 17 5 19 0 27 -2 18
-5z m100 0 c-10 -2 -26 -2 -35 0 -10 3 -2 5 17 5 19 0 27 -2 18 -5z m-303 -23
c9 -15 -14 -50 -33 -50 -16 1 -16 1 0 10 10 6 14 18 11 30 -5 20 11 28 22 10z"/>
<path d="M957 2303 c-4 -3 -7 -19 -7 -35 0 -43 34 -34 38 10 3 31 -13 44 -31
25z"/>
<path d="M257 2303 c-13 -12 -7 -23 13 -23 11 0 20 7 20 15 0 15 -21 21 -33 8z"/>
<path d="M657 2303 c-4 -3 -7 -19 -7 -35 0 -33 24 -38 40 -9 17 32 -10 68 -33
44z"/>
<path d="M1157 2303 c-13 -12 -7 -23 13 -23 11 0 20 7 20 15 0 15 -21 21 -33
8z"/>
<path d="M1451 2292 c-11 -21 3 -52 23 -52 18 0 28 27 21 51 -8 24 -31 24 -44
1z"/>
<path d="M1557 2303 c-4 -3 -7 -19 -7 -35 0 -33 24 -38 40 -9 17 32 -10 68
-33 44z"/>
<path d="M1851 2292 c-11 -21 3 -52 23 -52 18 0 28 27 21 51 -8 24 -31 24 -44
1z"/>
<path d="M157 1863 c-13 -12 -7 -23 13 -23 11 0 20 7 20 15 0 15 -21 21 -33 8z"/>
<path d="M357 1863 c-4 -3 -7 -19 -7 -35 0 -33 24 -38 40 -9 17 32 -10 68 -33
44z"/>
<path d="M757 1423 c-4 -3 -7 -19 -7 -35 0 -43 34 -34 38 10 3 31 -13 44 -31
25z"/>
<path d="M2557 1423 c-4 -3 -7 -19 -7 -35 0 -43 34 -34 38 10 3 31 -13 44 -31
25z"/>
<path d="M4257 1423 c-4 -3 -7 -19 -7 -35 0 -43 34 -34 38 10 3 31 -13 44 -31
25z"/>
<path d="M7057 1423 c-4 -3 -7 -19 -7 -35 0 -43 34 -34 38 10 3 31 -13 44 -31
25z"/>
<path d="M4650 1405 c0 -46 13 -58 38 -33 25 25 8 78 -25 78 -9 0 -13 -15 -13
-45z"/>
<path d="M6449 1429 c-8 -16 -8 -28 0 -45 22 -49 59 -16 45 40 -8 31 -29 34
-45 5z m31 -24 c-7 -8 -18 -15 -24 -15 -6 0 -2 7 8 15 25 19 32 19 16 0z"/>
<path d="M957 1423 c-13 -12 -7 -23 13 -23 11 0 20 7 20 15 0 15 -21 21 -33 8z"/>
<path d="M2757 1423 c-13 -12 -7 -23 13 -23 11 0 20 7 20 15 0 15 -21 21 -33
8z"/>
<path d="M3257 1423 c-13 -12 -7 -23 13 -23 11 0 20 7 20 15 0 15 -21 21 -33
8z"/>
<path d="M3857 1423 c-13 -12 -7 -23 13 -23 11 0 20 7 20 15 0 15 -21 21 -33
8z"/>
<path d="M4051 1412 c-11 -21 3 -52 23 -52 18 0 28 27 21 51 -8 24 -31 24 -44
1z"/>
<path d="M4757 1423 c-13 -12 -7 -23 13 -23 11 0 20 7 20 15 0 15 -21 21 -33
8z"/>
<path d="M4950 1374 c0 -9 7 -14 17 -12 25 5 28 28 4 28 -12 0 -21 -6 -21 -16z"/>
<path d="M5550 1374 c0 -9 7 -14 17 -12 25 5 28 28 4 28 -12 0 -21 -6 -21 -16z"/>
<path d="M5857 1423 c-13 -12 -7 -23 13 -23 11 0 20 7 20 15 0 15 -21 21 -33
8z"/>
<path d="M6757 1423 c-13 -12 -7 -23 13 -23 11 0 20 7 20 15 0 15 -21 21 -33
8z"/>
<path d="M6951 1412 c-11 -21 3 -52 23 -52 18 0 28 27 21 51 -8 24 -31 24 -44
1z"/>
<path d="M157 1203 c-4 -3 -7 -19 -7 -35 0 -21 5 -28 19 -28 22 0 34 25 26 51
-6 19 -26 25 -38 12z"/>
<path d="M957 1203 c-4 -3 -7 -19 -7 -35 0 -21 5 -28 19 -28 22 0 34 25 26 51
-6 19 -26 25 -38 12z"/>
<path d="M4157 1203 c-4 -3 -7 -19 -7 -35 0 -21 5 -28 19 -28 22 0 34 25 26
51 -6 19 -26 25 -38 12z"/>
<path d="M1254 1199 c-10 -17 13 -36 27 -22 12 12 4 33 -11 33 -5 0 -12 -5
-16 -11z"/>
<path d="M1250 1115 c0 -11 7 -15 23 -13 12 2 22 8 22 13 0 6 -10 11 -22 13
-16 2 -23 -2 -23 -13z"/>
<path d="M1657 1203 c-13 -12 -7 -23 13 -23 11 0 20 7 20 15 0 15 -21 21 -33
8z"/>
<path d="M2150 1154 c0 -9 7 -14 17 -12 25 5 28 28 4 28 -12 0 -21 -6 -21 -16z"/>
<path d="M3350 1154 c0 -9 7 -14 17 -12 25 5 28 28 4 28 -12 0 -21 -6 -21 -16z"/>
<path d="M3657 1203 c-13 -12 -7 -23 13 -23 11 0 20 7 20 15 0 15 -21 21 -33
8z"/>
<path d="M3851 1192 c-11 -21 3 -52 23 -52 18 0 28 27 21 51 -8 24 -31 24 -44
1z"/>
<path d="M4454 1199 c-10 -17 13 -36 27 -22 12 12 4 33 -11 33 -5 0 -12 -5
-16 -11z"/>
<path d="M4450 1115 c0 -11 7 -15 23 -13 12 2 22 8 22 13 0 6 -10 11 -22 13
-16 2 -23 -2 -23 -13z"/>
<path d="M4857 1203 c-13 -12 -7 -23 13 -23 11 0 20 7 20 15 0 15 -21 21 -33
8z"/>
<path d="M2857 983 c-4 -3 -7 -19 -7 -35 0 -43 34 -34 38 10 3 31 -13 44 -31
25z"/>
<path d="M4549 989 c-8 -16 -8 -28 0 -45 22 -49 59 -16 45 40 -8 31 -29 34
-45 5z m31 -24 c-7 -8 -18 -15 -24 -15 -6 0 -2 7 8 15 25 19 32 19 16 0z"/>
<path d="M2550 934 c0 -9 7 -14 17 -12 25 5 28 28 4 28 -12 0 -21 -6 -21 -16z"/>
<path d="M3150 934 c0 -9 7 -14 17 -12 25 5 28 28 4 28 -12 0 -21 -6 -21 -16z"/>
<path d="M3457 983 c-13 -12 -7 -23 13 -23 11 0 20 7 20 15 0 15 -21 21 -33 8z"/>
<path d="M3650 934 c0 -9 7 -14 17 -12 25 5 28 28 4 28 -12 0 -21 -6 -21 -16z"/>
<path d="M3857 983 c-13 -12 -7 -23 13 -23 11 0 20 7 20 15 0 15 -21 21 -33 8z"/>
<path d="M4251 972 c-11 -21 3 -52 23 -52 18 0 28 27 21 51 -8 24 -31 24 -44
1z"/>
<path d="M4851 972 c-11 -21 3 -52 23 -52 18 0 28 27 21 51 -8 24 -31 24 -44
1z"/>
<path d="M157 763 c-4 -3 -7 -19 -7 -35 0 -21 5 -28 19 -28 22 0 34 25 26 51
-6 19 -26 25 -38 12z"/>
<path d="M957 763 c-4 -3 -7 -19 -7 -35 0 -21 5 -28 19 -28 22 0 34 25 26 51
-6 19 -26 25 -38 12z"/>
<path d="M4157 763 c-4 -3 -7 -19 -7 -35 0 -21 5 -28 19 -28 22 0 34 25 26 51
-6 19 -26 25 -38 12z"/>
<path d="M1254 759 c-10 -17 13 -36 27 -22 12 12 4 33 -11 33 -5 0 -12 -5 -16
-11z"/>
<path d="M1250 675 c0 -11 7 -15 23 -13 12 2 22 8 22 13 0 6 -10 11 -22 13
-16 2 -23 -2 -23 -13z"/>
<path d="M1657 763 c-13 -12 -7 -23 13 -23 11 0 20 7 20 15 0 15 -21 21 -33 8z"/>
<path d="M2150 714 c0 -9 7 -14 17 -12 25 5 28 28 4 28 -12 0 -21 -6 -21 -16z"/>
<path d="M2550 714 c0 -9 7 -14 17 -12 25 5 28 28 4 28 -12 0 -21 -6 -21 -16z"/>
<path d="M3350 714 c0 -9 7 -14 17 -12 25 5 28 28 4 28 -12 0 -21 -6 -21 -16z"/>
<path d="M3657 763 c-13 -12 -7 -23 13 -23 11 0 20 7 20 15 0 15 -21 21 -33 8z"/>
<path d="M3851 752 c-11 -21 3 -52 23 -52 18 0 28 27 21 51 -8 24 -31 24 -44
1z"/>
<path d="M4454 759 c-10 -17 13 -36 27 -22 12 12 4 33 -11 33 -5 0 -12 -5 -16
-11z"/>
<path d="M4450 675 c0 -11 7 -15 23 -13 12 2 22 8 22 13 0 6 -10 11 -22 13
-16 2 -23 -2 -23 -13z"/>
<path d="M4857 763 c-13 -12 -7 -23 13 -23 11 0 20 7 20 15 0 15 -21 21 -33 8z"/>
<path d="M2857 543 c-4 -3 -7 -19 -7 -35 0 -43 34 -34 38 10 3 31 -13 44 -31
25z"/>
<path d="M4549 549 c-8 -16 -8 -28 0 -45 22 -49 59 -16 45 40 -8 31 -29 34
-45 5z m31 -24 c-7 -8 -18 -15 -24 -15 -6 0 -2 7 8 15 25 19 32 19 16 0z"/>
<path d="M2550 494 c0 -9 7 -14 17 -12 25 5 28 28 4 28 -12 0 -21 -6 -21 -16z"/>
<path d="M3150 494 c0 -9 7 -14 17 -12 25 5 28 28 4 28 -12 0 -21 -6 -21 -16z"/>
<path d="M3457 543 c-13 -12 -7 -23 13 -23 11 0 20 7 20 15 0 15 -21 21 -33 8z"/>
<path d="M3650 494 c0 -9 7 -14 17 -12 25 5 28 28 4 28 -12 0 -21 -6 -21 -16z"/>
<path d="M3857 543 c-13 -12 -7 -23 13 -23 11 0 20 7 20 15 0 15 -21 21 -33 8z"/>
<path d="M4251 532 c-11 -21 3 -52 23 -52 18 0 28 27 21 51 -8 24 -31 24 -44
1z"/>
<path d="M4851 532 c-11 -21 3 -52 23 -52 18 0 28 27 21 51 -8 24 -31 24 -44
1z"/>
<path d="M757 323 c-13 -12 -7 -23 13 -23 11 0 20 7 20 15 0 15 -21 21 -33 8z"/>
<path d="M957 323 c-4 -3 -7 -19 -7 -35 0 -33 24 -38 40 -9 17 32 -10 68 -33
44z"/>
<path d="M3057 323 c-13 -12 -7 -23 13 -23 11 0 20 7 20 15 0 15 -21 21 -33 8z"/>
<path d="M3257 323 c-4 -3 -7 -19 -7 -35 0 -33 24 -38 40 -9 17 32 -10 68 -33
44z"/>
</g>
</svg>
